<svg xmlns="http://www.w3.org/2000/svg" viewBox="0 0 120 64">
  <rect x="10" y="10" width="100" height="44" rx="9"
        fill="none"
        stroke="#ffffff" stroke-opacity="0.96" stroke-width="1.5"/>
  <path d="M22 20h76"
        fill="none"
        stroke="#ffffff" stroke-opacity="0.34" stroke-width="3" stroke-linecap="round"/>
  <path d="M24 44h16M80 44h16"
        fill="none"
        stroke="#ffffff" stroke-opacity="0.24" stroke-width="3.5" stroke-linecap="round"/>
  <path d="M60 18l5 8 10-3-5 9 11 3-10 4 1 11-8-7-8 7 1-11-10-4 11-3-5-9 10 3z"
        fill="#ffffff" fill-opacity="0.14"
        stroke="#ffffff" stroke-opacity="0.94" stroke-width="1.5" stroke-linejoin="round"/>
  <circle cx="60" cy="32" r="4.5"
          fill="#ffffff" fill-opacity="0.3"/>
  <path d="M60 22v4M60 38v4M50 32h4M66 32h4M52.5 24.5l2.8 2.8M67.7 39.7l2.8 2.8M52.5 39.5l2.8-2.8M67.7 24.3l2.8-2.8"
        fill="none"
        stroke="#ffffff" stroke-opacity="0.34" stroke-width="2" stroke-linecap="round"/>
</svg>
