<svg xmlns="http://www.w3.org/2000/svg" viewBox="0 0 256 256" role="img" aria-labelledby="title desc">
  <title id="title">Shield Wall</title>
  <desc id="desc">A monochrome neon icon showing a protective dome over a breakout paddle.</desc>

  <defs>
    <filter id="softGlow" x="-60%" y="-60%" width="220%" height="220%">
      <feGaussianBlur stdDeviation="2.25" result="blur"/>
      <feColorMatrix in="blur" type="matrix" values="1 0 0 0 0  0 1 0 0 0  0 0 1 0 0  0 0 0 .8 0" result="glow"/>
      <feMerge>
        <feMergeNode in="glow"/>
        <feMergeNode in="SourceGraphic"/>
      </feMerge>
    </filter>
    <style><![CDATA[
      .icon { fill: none; stroke: #fff; stroke-linecap: round; stroke-linejoin: round; filter: url(#softGlow); }
      .main { stroke-width: 7; }
      .mid { stroke-width: 5; opacity: .9; }
      .thin { stroke-width: 3.25; opacity: .72; }
      .faint { stroke-width: 3; opacity: .42; }
      .fill { fill: #fff; stroke: none; opacity: .92; filter: url(#softGlow); }
      .fill-soft { fill: #fff; stroke: none; opacity: .28; filter: url(#softGlow); }
      .dash { stroke-dasharray: 10 9; }
      .pixel { fill: #fff; opacity: .88; filter: url(#softGlow); }
    ]]></style>
  </defs>

  <g class="icon">


    <rect class="main" x="44" y="190" width="168" height="26" rx="13"/>
    <line class="thin" x1="69" y1="194" x2="69" y2="212"/>
    <line class="thin" x1="187" y1="194" x2="187" y2="212"/>
    <path class="main" d="M 39 181 C 50 79, 206 79, 217 181"/>
    <path class="thin" d="M 56 173 C 68 98, 188 98, 200 173"/>
    <path class="faint" d="M 74 160 C 88 128, 168 128, 182 160"/>
    <path class="thin" d="M 78 122 Q 94 103 122 98"/>
    <circle class="fill" cx="88" cy="143" r="2.2"/>
    <circle class="fill" cx="166" cy="119" r="2.2"/>
    <path class="mid" d="M 128 112 L 135 126 L 150 132 L 135 138 L 128 152 L 121 138 L 106 132 L 121 126 Z"/>
    <path class="thin" d="M 95 131 h-10 M90 126 v10 M171 131 h-10 M166 126 v10"/>

  </g>
</svg>
